{"title":"Dawn of the Planet of the Apes (2014) CamRip *PROPER* [RUS]","uid":10616795,"size":728251582,"categoryP":"video","categoryS":"movies","magnet":"?xt=urn:btih:f98074bf0322db932dec25a7e661ac59466654e0&amp;dn=Dawn+of+the+Planet+of+the+Apes+%282014%29+CamRip+%2APROPER%2A+%5BRUS%5D&amp;tr=udp%3A%2F%2Ftracker.openbittorrent.com%3A80&amp;tr=udp%3A%2F%2Fopen.demonii.com%3A1337&amp;tr=udp%3A%2F%2Ftracker.coppersurfer.tk%3A6969&amp;tr=udp%3A%2F%2Fexodus.desync.com%3A6969","seeders":2,"leechers":0,"uploader":"yfjfrj","files":1,"time":1406128731,"description":"Dawn of the Planet of the Apes (2014) CamRip *PROPER* [RUS]\n\n\nLanguage - Russian!!!!\n\nIn the wake of a disaster that changed the world, the growing and genetically evolving apes find themselves at a critical point with the human race.\n\nMediaInfo:\nGeneral\nComplete name                            : C:UsersIvanDesktopPlaneta.Obezjan.Revoluciya.Dt.CAMRip.PROPER.v2_700MB.avi\nFormat                                   : AVI\nFormat/Info                              : Audio Video Interleave\nFile size                                : 695 MiB\nDuration                                 : 1h 55mn\nOverall bit rate                         : 842 Kbps\nWriting application                      : VirtualDubMod 1.5.10.2 (build 2542/release)\nWriting library                          : VirtualDub build 35491/release\n\nVideo\nID                                       : 0\nFormat                                   : MPEG-4 Visual\nFormat profile                           : Advanced Simple@L5\nFormat settings, BVOP                    : 2\nFormat settings, QPel                    : No\nFormat settings, GMC                     : No warppoints\nFormat settings, Matrix                  : Default (H.263)\nMuxing mode                              : Packed bitstream\nCodec ID                                 : XVID\nCodec ID/Hint                            : XviD\nDuration                                 : 1h 55mn\nBit rate                                 : 705 Kbps\nWidth                                    : 640 pixels\nHeight                                   : 272 pixels\nDisplay aspect ratio                     : 2.35:1\nFrame rate                               : 25.000 fps\nColor space                              : YUV\nChroma subsampling                       : 4:2:0\nBit depth                                : 8 bits\nScan type                                : Progressive\nCompression mode                         : Lossy\nBits/(Pixel*Frame)                       : 0.162\nStream size                              : 581 MiB (84%)\nWriting library                          : XviD 64\n\nAudio\nID                                       : 1\nFormat                                   : MPEG Audio\nFormat version                           : Version 1\nFormat profile                           : Layer 3\nMode                                     : Joint stereo\nMode extension                           : MS Stereo\nCodec ID                                 : 55\nCodec ID/Hint                            : MP3\nDuration                                 : 1h 55mn\nBit rate mode                            : Constant\nBit rate                                 : 128 Kbps\nChannel(s)                               : 2 channels\nSampling rate                            : 48.0 KHz\nCompression mode                         : Lossy\nStream size                              : 106 MiB (15%)\nAlignment                                : Split accross interleaves\nInterleave, duration                     : 40 ms (1.00 video frame)\nInterleave, preload duration             : 500 ms\n\nScreenshots: &lt;a href=&quot;\nhttp://i5.imageban.ru/out/2014/07/23/beb788fa0ba583b227c6ff8c015f4669.png&quot; rel=&quot;nofollow&quot; target=&quot;_NEW&quot;&gt;\nhttp://i5.imageban.ru/out/2014/07/23/beb788fa0ba583b227c6ff8c015f4669.png&lt;/a&gt; &lt;a href=&quot;\nhttp://i4.imageban.ru/out/2014/07/23/8b644f18ab6d08e1fabb2b9a47a80f25.png&quot; rel=&quot;nofollow&quot; target=&quot;_NEW&quot;&gt;\nhttp://i4.imageban.ru/out/2014/07/23/8b644f18ab6d08e1fabb2b9a47a80f25.png&lt;/a&gt; &lt;a href=&quot;\nhttp://i6.imageban.ru/out/2014/07/23/e28809890696e4f2d5d834a049976956.png&quot; rel=&quot;nofollow&quot; target=&quot;_NEW&quot;&gt;\nhttp://i6.imageban.ru/out/2014/07/23/e28809890696e4f2d5d834a049976956.png&lt;/a&gt; &lt;a href=&quot;\nhttp://i4.imageban.ru/out/2014/07/23/18c78852e9960c80da8a8f934fb3c40d.png&quot; rel=&quot;nofollow&quot; target=&quot;_NEW&quot;&gt;\nhttp://i4.imageban.ru/out/2014/07/23/18c78852e9960c80da8a8f934fb3c40d.png&lt;/a&gt; &lt;a href=&quot;\nhttp://i4.imageban.ru/out/2014/07/23/ed79474cd6b6d833fd7c17fa373e3386.png&quot; rel=&quot;nofollow&quot; target=&quot;_NEW&quot;&gt;\nhttp://i4.imageban.ru/out/2014/07/23/ed79474cd6b6d833fd7c17fa373e3386.png&lt;/a&gt; &lt;a href=&quot;\nhttp://i6.imageban.ru/out/2014/07/23/cc98eb070aeb800c2a7ba0bd5564cb49.png&quot; rel=&quot;nofollow&quot; target=&quot;_NEW&quot;&gt;\nhttp://i6.imageban.ru/out/2014/07/23/cc98eb070aeb800c2a7ba0bd5564cb49.png&lt;/a&gt; &lt;a href=&quot;\nhttp://i5.imageban.ru/out/2014/07/23/5ef27fe61bbc900c2d664aad672cd239.png&quot; rel=&quot;nofollow&quot; target=&quot;_NEW&quot;&gt;\nhttp://i5.imageban.ru/out/2014/07/23/5ef27fe61bbc900c2d664aad672cd239.png&lt;/a&gt; &lt;a href=&quot;\nhttp://i4.imageban.ru/out/2014/07/23/58f529c6144fddac7625f3cb54d4431c.png&quot; rel=&quot;nofollow&quot; target=&quot;_NEW&quot;&gt;\nhttp://i4.imageban.ru/out/2014/07/23/58f529c6144fddac7625f3cb54d4431c.png&lt;/a&gt; &lt;a href=&quot;\nhttp://i4.imageban.ru/out/2014/07/23/313abd6d2890a90c4a6b725fa499cc8c.png&quot; rel=&quot;nofollow&quot; target=&quot;_NEW&quot;&gt;\nhttp://i4.imageban.ru/out/2014/07/23/313abd6d2890a90c4a6b725fa499cc8c.png&lt;/a&gt; &lt;a href=&quot;\nhttp://i5.imageban.ru/out/2014/07/23/a60c770682136b0238066234d046b577.png&quot; rel=&quot;nofollow&quot; target=&quot;_NEW&quot;&gt;\nhttp://i5.imageban.ru/out/2014/07/23/a60c770682136b0238066234d046b577.png&lt;/a&gt; &lt;a href=&quot;\nhttp://i5.imageban.ru/out/2014/07/23/ed12b459a1c619fac72d7a07a386b048.png&quot; rel=&quot;nofollow&quot; target=&quot;_NEW&quot;&gt;\nhttp://i5.imageban.ru/out/2014/07/23/ed12b459a1c619fac72d7a07a386b048.png&lt;/a&gt; &lt;a href=&quot;\nhttp://i4.imageban.ru/out/2014/07/23/8508cd28a39565efcd0658589b3a7d00.png&quot; rel=&quot;nofollow&quot; target=&quot;_NEW&quot;&gt;\nhttp://i4.imageban.ru/out/2014/07/23/8508cd28a39565efcd0658589b3a7d00.png&lt;/a&gt;\n\n\nCamRip: https://thepiratebay.se/torrent/10605226/Dawn_of_the_Planet_of_the_Apes_(2014)_CamRip_[RUS] vs CamRip *PROPER*:\n  &lt;a href=&quot;\nhttp://screenshotcomparison.com/comparison/84705&quot; rel=&quot;nofollow&quot; target=&quot;_NEW&quot;&gt;\nhttp://screenshotcomparison.com/comparison/84705&lt;/a&gt;","torrent":{"xt":"urn:btih:f98074bf0322db932dec25a7e661ac59466654e0","amp;dn":"Dawn+of+the+Planet+of+the+Apes+%282014%29+CamRip+%2APROPER%2A+%5BRUS%5D","amp;tr":["udp%3A%2F%2Ftracker.openbittorrent.com%3A80","udp%3A%2F%2Fopen.demonii.com%3A1337","udp%3A%2F%2Ftracker.coppersurfer.tk%3A6969","udp%3A%2F%2Fexodus.desync.com%3A6969"],"infoHash":"f98074bf0322db932dec25a7e661ac59466654e0","infoHashBuffer":{"type":"Buffer","data":[249,128,116,191,3,34,219,147,45,236,37,167,230,97,172,89,70,102,84,224]},"announce":[],"urlList":[]}}